# xmcd
#
# Track frame offsets:
#	150
#	12777
#	24821
#	41616
#	54277
#	69728
#	82039
#	99963
#	114840
#	129126
#	143243
#	152982
#	169748
#	181811
#
# Disc length: 2646 seconds
# Revision: 0
# Processed by: cddbd v1.5.2PL0 Copyright (c) Steve Scherf et al.
# Submitted via: dBpowerAMP V12.0
#
DISCID=a30a540e
DTITLE=Edisons - The Sound Of Wood
DYEAR=2010
DGENRE=
TTITLE0=Milkshake Guitar Boogie
TTITLE1=I'm back if you still want me
TTITLE2=Girl from the woods
TTITLE3=Well allright
TTITLE4=Move it on over
TTITLE5=Orange Blossom Special
TTITLE6=Love is a fight
TTITLE7=Lonesome town
TTITLE8=Oh, lonesome me
TTITLE9=Bad Boy
TTITLE10=Do you know what I mean
TTITLE11=Will you believe me
TTITLE12=Her har du mig tilbage
TTITLE13=Pigen i skoven
EXTD=
EXTT0=
EXTT1=
EXTT2=
EXTT3=
EXTT4=
EXTT5=
EXTT6=
EXTT7=
EXTT8=
EXTT9=
EXTT10=
EXTT11=
EXTT12=
EXTT13=
PLAYORDER=
